<?xml version="1.0" encoding="UTF-8"?>
<svg id="Livello_2" data-name="Livello 2" xmlns="http://www.w3.org/2000/svg" viewBox="0 0 395.07 156.71">
  <defs>
    <style>
      .cls-1 {
        fill: #fff;
      }

      .cls-2 {
        stroke: #fff;
        stroke-miterlimit: 10;
        stroke-width: 2.75px;
      }
    </style>
  </defs>
  <g id="Livello_1-2" data-name="Livello 1">
    <g>
      <ellipse class="cls-2" cx="197.53" cy="78.35" rx="196.16" ry="76.98"/>
      <g>
        <path class="cls-1" d="m57.82,87.57h7.02c.96,9.66,6.86,14.68,17.64,14.68,7.9,0,13.57-3.59,13.57-10.69,0-7.82-6.86-9.66-17.08-11.89-10.06-2.23-18.68-5.11-18.68-15.88,0-9.42,7.82-15.08,19.39-15.08,14.29,0,20.19,7.26,21.63,17.8h-6.78c-1.04-8.14-6.31-12.21-14.68-12.21-7.74,0-12.85,3.27-12.85,9.18,0,6.46,6.38,8.38,14.92,10.06,11.09,2.24,21.23,4.95,21.23,17.8,0,10.69-8.7,16.68-20.99,16.68-16.04,0-23.7-8.94-24.34-20.43Z"/>
        <path class="cls-1" d="m109.22,78.31c0-17.08,10.69-29.77,27.93-29.77s27.93,12.69,27.93,29.77-10.69,29.77-27.93,29.77-27.93-12.69-27.93-29.77Zm48.52,0c0-13.41-7.18-23.54-20.59-23.54s-20.59,10.14-20.59,23.54,7.18,23.46,20.59,23.46,20.59-10.06,20.59-23.46Z"/>
        <path class="cls-1" d="m171.47,78.31c0-16.76,10.06-29.77,27.05-29.77,13.33,0,21.39,7.66,22.9,18.2h-7.02c-1.36-7.1-7.02-11.97-16.04-11.97-12.53,0-19.55,10.14-19.55,23.54s7.74,23.38,19.63,23.38c10.77,0,15.88-7.34,16.6-15.72h7.1c-.08,5.67-2.79,12.05-6.86,16.04-3.99,3.91-9.82,5.98-17.08,5.98-16.2,0-26.74-12.37-26.74-29.69Z"/>
        <path class="cls-1" d="m230.37,49.82h7.18v57.06h-7.18v-57.06Z"/>
        <path class="cls-1" d="m264.85,49.82h8.06l21.07,57.06h-7.82l-6.07-17.4h-22.74l-6.15,17.4h-7.34l20.99-57.06Zm-5.43,33.84h18.68l-6.54-19.15c-1.12-3.19-2.55-8.06-2.55-8.06h-.16s-1.52,4.79-2.63,8.06l-6.78,19.15Z"/>
        <path class="cls-1" d="m300.13,49.82h7.18v50.44h29.93v6.62h-37.11v-57.06Z"/>
      </g>
    </g>
  </g>
</svg>