<?xml version="1.0" encoding="UTF-8"?>
<svg id="Livello_2" data-name="Livello 2" xmlns="http://www.w3.org/2000/svg" viewBox="0 0 395.07 156.71">
  <defs>
    <style>
      .cls-1 {
        fill: #fff;
      }

      .cls-2 {
        stroke: #fff;
        stroke-miterlimit: 10;
        stroke-width: 2.75px;
      }
    </style>
  </defs>
  <g id="Livello_1-2" data-name="Livello 1">
    <g>
      <ellipse class="cls-2" cx="197.53" cy="78.35" rx="196.16" ry="76.98"/>
      <g>
        <path class="cls-1" d="m85.84,49.82h8.06l21.07,57.06h-7.82l-6.07-17.4h-22.74l-6.15,17.4h-7.34l20.99-57.06Zm-5.43,33.84h18.68l-6.54-19.15c-1.12-3.19-2.55-8.06-2.55-8.06h-.16s-1.52,4.79-2.63,8.06l-6.78,19.15Z"/>
        <path class="cls-1" d="m121.11,49.82h24.18c5.99,0,10.54,1.6,13.73,4.95,2.31,2.39,3.67,5.67,3.67,9.74,0,6.31-3.51,10.22-9.18,11.97v.24c6.46,1.52,11.49,6.15,11.49,13.81,0,4.39-1.52,8.14-4.15,10.93-3.19,3.43-8.14,5.43-14.29,5.43h-25.46v-57.06Zm23.3,24.42c6.94,0,11.09-3.43,11.09-9.34,0-5.51-3.75-8.86-10.13-8.86h-17.08v18.2h16.12Zm1.84,26.18c4.07,0,7.02-1.04,8.94-2.87,1.6-1.68,2.55-3.91,2.55-6.62,0-7.1-5.03-10.61-11.97-10.61h-17.48v20.11h17.96Z"/>
        <path class="cls-1" d="m170.76,78.31c0-17.08,10.69-29.77,27.93-29.77s27.93,12.69,27.93,29.77-10.69,29.77-27.93,29.77-27.93-12.69-27.93-29.77Zm48.52,0c0-13.41-7.18-23.54-20.59-23.54s-20.59,10.14-20.59,23.54,7.18,23.46,20.59,23.46,20.59-10.06,20.59-23.46Z"/>
        <path class="cls-1" d="m234.21,88.45v-38.63h7.18v37.91c0,9.74,5.51,13.89,14.92,13.89s14.44-4.15,14.44-13.89v-37.91h7.18v38.63c0,13.81-9.66,19.31-21.87,19.31s-21.87-5.51-21.87-19.31Z"/>
        <path class="cls-1" d="m284.09,49.82h45.17v6.31h-18.99v50.76h-7.18v-50.76h-18.99v-6.31Z"/>
      </g>
    </g>
  </g>
</svg>