<?xml version="1.0" encoding="UTF-8"?>
<svg id="Livello_2" data-name="Livello 2" xmlns="http://www.w3.org/2000/svg" viewBox="0 0 395.07 156.71">
  <defs>
    <style>
      .cls-1 {
        fill: #fff;
      }

      .cls-2 {
        stroke: #fff;
        stroke-miterlimit: 10;
        stroke-width: 2.75px;
      }
    </style>
  </defs>
  <g id="Livello_1-2" data-name="Livello 1">
    <g>
      <ellipse class="cls-2" cx="197.53" cy="78.35" rx="196.16" ry="76.98"/>
      <g>
        <path class="cls-1" d="m56.67,49.82h7.5l9.02,37.11c.96,3.83,2.16,9.66,2.16,9.66h.16s1.36-6.07,2.39-9.82l10.29-36.95h7.74l9.98,36.95c1.04,3.83,2.31,9.82,2.31,9.82h.16s1.36-6.14,2.23-9.66l9.5-37.11h7.26l-15.88,57.06h-6.86l-10.46-40.22c-.88-3.35-2.08-8.7-2.08-8.7h-.16s-1.2,5.35-2.16,8.7l-11.17,40.22h-7.18l-14.76-57.06Z"/>
        <path class="cls-1" d="m129.29,78.31c0-17.08,10.69-29.77,27.93-29.77s27.93,12.69,27.93,29.77-10.69,29.77-27.93,29.77-27.93-12.69-27.93-29.77Zm48.52,0c0-13.41-7.18-23.54-20.59-23.54s-20.59,10.14-20.59,23.54,7.18,23.46,20.59,23.46,20.59-10.06,20.59-23.46Z"/>
        <path class="cls-1" d="m193.7,49.82h26.66c10.06,0,16.84,6.31,16.84,15.64,0,6.94-3.03,11.89-9.9,14.13v.24c5.83,2.08,7.66,6.07,8.22,14.53.64,9.18,1.6,11.49,2.63,12.21v.32h-7.74c-1.2-1.04-1.44-3.19-2.08-12.77-.56-8.38-3.91-11.33-11.57-11.33h-15.88v24.1h-7.18v-57.06Zm7.18,27.13h16.92c7.98,0,11.97-3.99,11.97-10.46,0-6.94-3.19-10.45-11.57-10.45h-17.32v20.91Z"/>
        <path class="cls-1" d="m245.9,49.82h7.18v28.33l28.09-28.33h9.02l-23.07,22.83,24.98,34.24h-8.38l-21.47-29.37-9.18,9.18v20.19h-7.18v-57.06Z"/>
        <path class="cls-1" d="m291.31,87.57h7.02c.96,9.66,6.86,14.68,17.64,14.68,7.9,0,13.57-3.59,13.57-10.69,0-7.82-6.86-9.66-17.08-11.89-10.06-2.23-18.68-5.11-18.68-15.88,0-9.42,7.82-15.08,19.39-15.08,14.29,0,20.19,7.26,21.63,17.8h-6.78c-1.04-8.14-6.3-12.21-14.68-12.21-7.74,0-12.85,3.27-12.85,9.18,0,6.46,6.38,8.38,14.92,10.06,11.09,2.24,21.23,4.95,21.23,17.8,0,10.69-8.7,16.68-20.99,16.68-16.04,0-23.7-8.94-24.34-20.43Z"/>
      </g>
    </g>
  </g>
</svg>