<?xml version="1.0" encoding="UTF-8"?>
<svg id="Livello_2" data-name="Livello 2" xmlns="http://www.w3.org/2000/svg" viewBox="0 0 395.07 156.71">
  <defs>
    <style>
      .cls-1 {
        fill: #fff;
      }

      .cls-2 {
        stroke: #fff;
        stroke-miterlimit: 10;
        stroke-width: 2.75px;
      }
    </style>
  </defs>
  <g id="Livello_1-2" data-name="Livello 1">
    <g>
      <ellipse class="cls-2" cx="197.53" cy="78.35" rx="196.16" ry="76.98"/>
      <g>
        <path class="cls-1" d="m59.98,87.57h7.02c.96,9.66,6.86,14.68,17.64,14.68,7.9,0,13.57-3.59,13.57-10.69,0-7.82-6.86-9.66-17.08-11.89-10.06-2.23-18.68-5.11-18.68-15.88,0-9.42,7.82-15.08,19.39-15.08,14.29,0,20.19,7.26,21.63,17.8h-6.78c-1.04-8.14-6.31-12.21-14.68-12.21-7.74,0-12.85,3.27-12.85,9.18,0,6.46,6.38,8.38,14.92,10.06,11.09,2.24,21.23,4.95,21.23,17.8,0,10.69-8.7,16.68-20.99,16.68-16.04,0-23.7-8.94-24.34-20.43Z"/>
        <path class="cls-1" d="m113.53,49.82h9.18l18.52,47.41h.16l18.36-47.41h9.34v57.06h-6.86v-46.93h-.16s-1.52,4.47-2.55,7.18l-15.64,39.74h-5.51l-15.64-39.74c-1.12-2.87-2.55-7.18-2.55-7.18h-.16v46.93h-6.46v-57.06Z"/>
        <path class="cls-1" d="m179.93,49.82h7.18v57.06h-7.18v-57.06Z"/>
        <path class="cls-1" d="m197.97,49.82h7.18v50.44h29.93v6.62h-37.11v-57.06Z"/>
        <path class="cls-1" d="m242.19,49.82h40.3v6.31h-33.12v18.04h30.09v6.07h-30.09v20.03h34.08v6.62h-41.26v-57.06Z"/>
        <path class="cls-1" d="m307.95,82.7l-20.67-32.88h7.98l16.36,27.13h.16l16.6-27.13h7.66l-20.91,33.04v24.02h-7.18v-24.18Z"/>
      </g>
    </g>
  </g>
</svg>